<svg xmlns="http://www.w3.org/2000/svg" viewBox="0 0 512 512">
  <rect width="512" height="512" rx="112" fill="#d9dbd6"/>
  <rect x="22" y="22" width="468" height="468" rx="98" fill="#171816"/>
  <circle cx="258" cy="174" r="54" fill="none" stroke="#ef7629" stroke-width="28"/>
  <path d="M76 86c38 49 69 119 180 171 106-42 153-118 181-172-18 100-78 182-179 214C155 267 96 188 76 86Z" fill="#f1c94b"/>
  <path d="M76 86c29 87 74 145 148 181-79-25-130-91-148-181Zm362-1c-21 70-62 126-124 161 68-22 106-78 124-161Z" fill="#ef7629"/>
  <path d="M73 427c35-91 98-137 185-137 89 0 151 47 181 137-47-61-107-91-181-91-73 0-135 30-185 91Z" fill="#f1c94b"/>
  <path d="M73 427c28-67 75-109 141-127-71 32-111 75-141 127Zm366 0c-31-68-77-110-141-128 71 31 111 75 141 128Z" fill="#ef7629"/>
</svg>
